<svg width="500" height="500" viewBox="0 0 512 512" xmlns="http://www.w3.org/2000/svg">
  <circle cx="256" cy="256" r="230" fill="#1B4294"/>

  <defs>
    <linearGradient id="silverFull" x1="0%" y1="0%" x2="100%" y2="100%">
      <stop offset="0%" stop-color="#CBD5E0"/>
      <stop offset="50%" stop-color="#FFFFFF"/>
      <stop offset="100%" stop-color="#718096"/>
    </linearGradient>
  </defs>

  <path d="M256 80 L415 155 L385 390 L256 475 L127 390 L97 155 Z M256 95 L112 165 L142 380 L256 460 L370 380 L400 165 Z" 
        fill="url(#silverFull)"/>

  <path d="M180 200 H215 V285 H180 Z" fill="url(#silverFull)"/> <path d="M210 200 C320 200 330 240 330 270 C330 300 320 340 230 340 L220 310 C290 310 300 290 300 270 C300 250 290 230 220 230 L210 230 Z" 
        fill="url(#silverFull)"/>

  <path d="M305 200 C390 200 395 240 395 270 C395 300 390 340 305 340 L305 310 C360 310 365 290 365 270 C365 250 360 230 305 230 Z" 
        fill="url(#silverFull)"/>
</svg>
