<svg width="512" height="512" viewBox="0 0 512 512" xmlns="http://www.w3.org/2000/svg">
  <circle cx="256" cy="256" r="230" fill="#1B4294"/>

  <defs>
    <linearGradient id="silverReflect" x1="0%" y1="0%" x2="100%" y2="100%">
      <stop offset="0%" stop-color="#C0C0C0"/>
      <stop offset="30%" stop-color="#FFFFFF"/>
      <stop offset="50%" stop-color="#E2E8F0"/>
      <stop offset="70%" stop-color="#FFFFFF"/>
      <stop offset="100%" stop-color="#808080"/>
    </linearGradient>
    
    <filter id="lightGlow" x="-20%" y="-20%" width="140%" height="140%">
      <feGaussianBlur stdDeviation="2.5" result="blur"/>
      <feComposite in="SourceGraphic" in2="blur" operator="over"/>
    </filter>
  </defs>

  <path d="M256 90 L410 160 L380 390 L256 470 L132 390 L102 160 Z" 
        fill="none" 
        stroke="url(#silverReflect)" 
        stroke-width="14" 
        stroke-linejoin="miter" 
        filter="url(#lightGlow)"/>

  <g stroke="url(#silverReflect)" stroke-width="32" fill="none" stroke-linecap="butt" filter="url(#lightGlow)">
    <path d="M185 200 L185 305"/> 
    <path d="M185 200 C310 200 315 235 315 270 C315 305 310 340 215 340"/>
  </g>

  <path d="M305 200 C385 200 390 235 390 270 C390 305 385 340 305 340" 
        fill="none" 
        stroke="url(#silverReflect)" 
        stroke-width="32" 
        stroke-linecap="butt"
        filter="url(#lightGlow)"/>

  <circle cx="410" cy="160" r="3" fill="white" filter="url(#lightGlow)"/>
</svg>
